<svg width="438" height="225" viewBox="0 0 438 225" fill="none" xmlns="http://www.w3.org/2000/svg">
<g clip-path="url(#clip0)">
<path d="M0.145768 327.273C5.68269 296.422 13.551 266.009 23.7506 236.469C33.8044 207.074 46.044 178.261 60.3234 150.612C74.6028 122.964 91.0679 96.3337 109.281 71.1589C125.892 48.1669 144.98 25.757 169.751 11.4961C180.533 5.23876 193.355 -0.727522 206.178 7.32293e-05C211.423 0.291111 216.814 2.03734 220.457 6.11187C224.391 10.4774 225.411 16.2982 224.1 21.9735C222.643 28.5218 218.563 34.3426 214.483 39.5813C209.82 45.5476 204.429 50.7862 199.621 56.607C189.713 68.6851 180.824 81.6363 173.102 95.1696C169.313 102.009 165.816 108.848 162.611 115.979C159.551 122.818 156.345 129.803 154.305 136.934C152.848 142.172 151.683 151.485 158.822 153.232C166.399 155.123 172.228 145.374 175.725 140.28C191.607 116.706 204.866 90.6585 225.411 70.4313C230.511 65.4837 236.048 60.6815 242.168 57.0436C247.705 53.6966 254.407 51.3683 260.818 53.1145C266.064 54.5697 270.872 58.4987 271.747 64.0285C272.912 71.4499 267.521 78.1438 263.441 83.8191C246.539 107.393 227.014 129.076 209.383 152.213C191.898 175.06 175.87 199.943 167.856 227.883C165.525 236.032 163.922 244.909 166.399 253.203C168.439 259.897 173.83 265.863 180.679 267.61C188.693 269.792 195.395 264.263 200.786 259.024C206.323 253.494 210.986 247.237 215.212 240.834C223.371 228.174 229.782 214.495 236.485 201.107C242.896 188.447 249.745 175.933 257.176 163.709C271.747 139.553 288.357 116.415 308.174 96.1882C317.79 86.4384 328.281 77.4162 339.501 69.4127C350.429 61.7002 362.377 54.1332 375.054 49.6221C385.399 45.9841 398.804 43.8013 408.13 51.0773C418.767 59.0808 417.892 74.3603 411.773 84.8377C408.13 91.095 402.739 96.3337 397.347 101.136C391.373 106.375 385.108 111.468 379.134 116.852C366.894 127.766 354.946 139.262 343.581 151.194C332.216 162.981 320.996 175.06 311.088 188.156C301.908 200.38 293.457 215.077 294.769 230.939C295.351 237.487 298.411 247.383 306.862 246.364C310.942 245.927 314.439 243.017 317.353 240.252C319.976 237.778 322.453 235.013 324.784 232.249C334.256 221.335 342.561 209.402 352.323 198.634C360.92 189.32 370.537 180.735 382.485 176.224C392.685 172.295 404.341 170.985 414.978 173.459C424.741 175.642 433.192 181.317 437.854 190.194C438.291 191.067 436.98 191.794 436.543 190.921C425.323 169.675 395.745 170.694 376.948 180.153C364.709 186.41 354.946 197.033 346.349 207.51C337.17 218.57 328.864 230.357 318.665 240.543C314.439 244.763 308.174 249.565 301.908 247.091C296.371 244.909 294.04 238.506 293.311 233.122C291.126 218.424 297.683 204.309 305.842 192.522C314.731 179.571 325.659 167.929 336.295 156.433C347.515 144.355 359.172 132.859 371.411 121.654C377.385 116.124 383.505 110.74 389.771 105.501C395.453 100.699 401.136 96.0427 405.944 90.3674C410.753 84.5467 414.25 77.7073 414.687 70.1403C415.124 63.1554 412.647 56.0249 406.818 51.9504C396.473 44.5289 381.465 48.3124 370.683 52.969C358.152 58.4987 346.204 66.0657 335.276 74.3603C312.836 91.2405 293.749 112.486 277.429 135.333C260.964 158.47 246.976 183.209 234.299 208.674C227.451 222.208 220.894 236.032 211.86 248.256C207.635 254.076 202.826 259.752 197.289 264.263C192.481 268.192 186.653 270.811 180.242 269.21C174.413 267.755 169.605 263.244 166.836 258.005C163.485 251.748 163.194 244.181 164.214 237.342C165.379 229.775 167.856 222.353 170.625 215.077C173.102 208.674 175.87 202.417 179.076 196.305C192.044 170.985 210.112 148.575 228.034 126.602C237.214 115.251 246.539 104.046 255.427 92.4047C259.798 86.5839 264.753 80.7632 268.104 74.3603C270.144 70.5768 271.455 65.9202 269.415 61.8457C267.958 58.9353 265.19 56.7525 262.13 55.5884C254.699 52.678 246.976 56.0249 240.711 60.245C234.737 64.3195 229.2 69.2672 224.1 74.5059C214.046 84.8377 205.741 96.7703 197.872 108.848C190.15 120.781 182.864 133.15 174.559 144.937C171.353 149.594 166.545 155.414 160.425 155.414C155.18 155.414 152.12 150.903 151.828 146.101C151.391 139.698 154.16 133.587 156.345 127.766C159.114 120.781 162.174 113.942 165.525 107.393C172.373 93.7144 180.387 80.6177 189.421 68.2485C193.792 62.2823 198.455 56.4615 203.409 50.7862C208.363 45.111 213.755 39.7268 217.834 33.1784C221.477 27.5032 224.683 20.3727 222.643 13.5333C220.749 7.13051 215.212 3.49253 208.946 2.4739C195.832 0.291112 181.99 6.98499 171.062 13.2423C158.531 20.3728 147.457 29.8315 137.403 40.1634C127.349 50.6407 118.315 61.9912 109.864 73.7783C100.539 85.8563 91.7965 98.9531 83.7825 112.195C67.6088 138.534 53.4751 166.183 41.2356 194.705C28.9961 223.517 18.7965 253.349 10.9282 283.762C7.13978 298.314 3.93419 312.866 1.31144 327.564C1.16573 328.291 5.95203e-05 328 0.145768 327.273Z" fill="#A195B6"/>
</g>
<defs>
<clipPath id="clip0">
<rect width="225" height="438" fill="white" transform="matrix(4.37114e-08 1 1 -4.37114e-08 0 0)"/>
</clipPath>
</defs>
</svg>
