<svg width="88" height="62" viewBox="0 0 88 62" fill="none" xmlns="http://www.w3.org/2000/svg">
<path d="M24.7581 7.07434L19.5582 2.27446C19.1877 1.93243 18.6224 1.91597 18.2459 2.25148C2.71867 16.0908 -3.91595 48.2873 8.40964 56.1758C19.749 63.4331 34.4096 61.1758 37.4096 43.1758C39.7271 29.2713 28.2455 24.5039 21.6007 23.7422C21.1853 23.6946 20.8284 23.41 20.7447 23.0002C19.7052 17.9148 22.7911 11.607 24.9078 8.40361C25.1868 7.98144 25.1299 7.41755 24.7581 7.07434Z" stroke="#A195B6" stroke-width="3"/>
<path d="M72.6682 7.07434L67.4684 2.27446C67.0978 1.93243 66.5325 1.91597 66.1561 2.25148C50.6288 16.0908 43.9942 48.2873 56.3198 56.1758C67.6592 63.4331 82.3198 61.1758 85.3198 43.1758C87.6372 29.2713 76.1556 24.5039 69.5109 23.7422C69.0954 23.6946 68.7386 23.41 68.6549 23.0002C67.6154 17.9148 70.7013 11.607 72.818 8.40361C73.0969 7.98144 73.0401 7.41755 72.6682 7.07434Z" stroke="#A195B6" stroke-width="3"/>
</svg>
