<svg width="842" height="681" viewBox="0 0 842 681" fill="none" xmlns="http://www.w3.org/2000/svg">
<g opacity="0.4">
<path d="M-86.9531 51.7719C-61.4229 51.8856 -2.27009 62.0967 30.0991 102.032C70.5607 151.95 101.607 213.176 137.114 233.676C202.066 271.176 300.648 207.427 368.631 246.677C426.222 279.927 416.659 338.491 493.302 382.741C569.945 426.991 614.931 394.074 646.195 503.923C671.554 593.026 696.807 586.26 803.664 586.177" stroke="#A195B6"/>
<path d="M-96.9648 69.1128C-71.4346 69.2264 -12.2818 79.4375 20.0874 119.372C60.5489 169.291 91.5954 230.517 127.102 251.017C192.054 288.517 290.637 224.767 358.62 264.017C416.21 297.267 406.647 355.832 483.29 400.082C559.933 444.332 604.919 411.414 636.183 521.263C661.543 610.367 686.795 603.601 793.653 603.518" stroke="#A195B6"/>
<path d="M-106.977 86.4536C-81.4463 86.5673 -22.2935 96.7783 10.0757 136.713C50.5372 186.632 81.5836 247.858 117.091 268.358C182.043 305.858 280.625 242.108 348.608 281.358C406.199 314.608 396.635 373.173 473.278 417.423C549.922 461.673 594.907 428.755 626.171 538.604C651.531 627.708 676.783 620.941 783.641 620.859" stroke="#A195B6"/>
<path d="M-116.988 103.794C-91.458 103.908 -32.3052 114.119 0.0639742 154.054C40.5255 203.973 71.5719 265.199 107.079 285.699C172.031 323.199 270.613 259.449 338.596 298.699C396.187 331.949 386.623 390.513 463.267 434.763C539.91 479.013 584.895 446.096 616.16 555.945C641.519 645.048 666.772 638.282 773.629 638.2" stroke="#A195B6"/>
</g>
</svg>
