<svg width="233" height="134" viewBox="0 0 233 134" fill="none" xmlns="http://www.w3.org/2000/svg">
<rect width="13.4429" height="13.4429" rx="3.36073" transform="matrix(0.939693 -0.34202 -0.34202 -0.939693 4.59778 121.23)" fill="#A195B6"/>
<rect width="20.1644" height="20.1644" rx="3.36073" transform="matrix(0.939693 -0.34202 -0.34202 -0.939693 71.6771 125.663)" fill="#FCEDE4"/>
<rect width="20.1644" height="20.1644" rx="6.72145" transform="matrix(-0.965926 -0.258819 -0.258819 0.965926 255.214 86.5522)" fill="#DBEFE2"/>
<rect width="13.4429" height="13.4429" rx="3.36073" transform="matrix(0.939693 -0.34202 -0.34202 -0.939693 8.59778 17.2299)" fill="#A195B6"/>
<rect width="13.4429" height="13.4429" rx="3.36073" transform="matrix(0.939693 -0.34202 -0.34202 -0.939693 61.5977 55.2299)" fill="#A195B6"/>
<rect width="20.1644" height="20.1644" rx="3.36073" transform="matrix(-0.258819 0.965926 0.965926 0.258819 207.171 0.676514)" fill="#DBEFE2"/>
<rect width="20.1644" height="20.1644" rx="3.36073" transform="matrix(-0.258819 0.965926 0.965926 0.258819 87.8641 25.8816)" fill="#FCEDE4"/>
<rect width="13.4429" height="13.4429" rx="3.36073" transform="matrix(0.939693 -0.34202 -0.34202 -0.939693 149.417 93.5232)" fill="#A195B6"/>
<rect width="13.4429" height="13.4429" rx="3.36073" transform="matrix(0.939693 -0.34202 -0.34202 -0.939693 153.396 133.852)" fill="#DBEFE2"/>
</svg>
