<svg width="48" height="57" viewBox="0 0 48 57" fill="none" xmlns="http://www.w3.org/2000/svg">
<circle cx="23.5" cy="28.5" r="19.5" fill="#DBEFE2"/>
<g clip-path="url(#clip0)">
<path d="M29.4904 49.9999C28.6207 49.9999 27.728 49.954 26.7439 49.8393C17.7945 48.8526 5.84685 42.0149 5.34331 41.7166C5.02287 41.533 4.90843 41.12 5.09154 40.7758C5.27464 40.4546 5.70952 40.3398 6.02996 40.5234C6.1444 40.5922 18.2523 47.4988 26.9041 48.4626C35.5787 49.4263 39.218 45.5485 39.7444 41.5789C39.7902 41.2118 40.1335 40.9364 40.5226 40.9823C40.8888 41.0282 41.1635 41.3724 41.1177 41.7625C40.5455 45.9156 37.1809 49.9999 29.4904 49.9999Z" fill="#5D4E6D"/>
<path d="M38.9433 40.6382C36.7003 40.6382 34.0223 39.7662 30.818 38.0224C24.661 34.6723 22.6469 30.6798 21.9831 28.5917C21.8229 28.064 21.9831 27.4904 22.3722 27.1232C22.7384 26.7332 23.3106 26.5955 23.8371 26.7561C26.103 27.5133 30.2915 28.913 33.0381 30.0373C36.0594 31.2764 41.6899 34.2593 43.9787 35.4984C44.3907 35.7278 44.6883 36.1179 44.8027 36.5997C44.8943 37.0816 44.7798 37.5635 44.4594 37.9535C43.0174 39.7433 41.2093 40.6382 38.9433 40.6382ZM23.4022 28.064C23.9057 30.0603 25.7597 33.6627 31.4817 36.8063C39.0349 40.9365 41.8959 38.9402 43.3836 37.1045C43.4523 37.0128 43.4523 36.921 43.4294 36.8751C43.4294 36.8292 43.3836 36.7604 43.315 36.7145C41.049 35.4984 35.4643 32.5154 32.5117 31.3223C29.8109 30.2209 25.6452 28.8212 23.4022 28.064Z" fill="#5D4E6D"/>
<path d="M21.182 27.6969C21.0904 27.6969 21.0217 27.6739 20.9302 27.651L11.6146 24.1632C11.2713 24.0256 11.0882 23.6355 11.2255 23.2913C11.34 22.9242 11.752 22.7406 12.0953 22.8783L21.4108 26.366C21.7542 26.5037 21.9373 26.8938 21.8228 27.2379C21.7084 27.5133 21.4566 27.6969 21.182 27.6969Z" fill="#5D4E6D"/>
<path d="M42.1247 28.9589C39.4239 28.9589 37.2495 26.7561 37.2495 24.0715C37.2495 22.1211 39.6757 17.7156 41.1176 15.2604C41.5525 14.5262 42.7198 14.5262 43.1547 15.2604C44.5967 17.7156 47.0228 22.1441 47.0228 24.0945C46.9999 26.7561 44.8255 28.9589 42.1247 28.9589ZM42.1247 16.2241C39.9503 19.9643 38.5999 22.9472 38.5999 24.0715C38.5999 26.0219 40.1792 27.6051 42.1247 27.6051C44.0702 27.6051 45.6495 26.0219 45.6495 24.0715C45.6495 22.9472 44.2991 19.9413 42.1247 16.2241Z" fill="#5D4E6D"/>
<path d="M33.3128 19.2758C32.1226 18.9546 31.1613 18.0138 30.8179 16.8206C30.8179 16.7977 30.7951 16.7518 30.7951 16.7289C30.7722 16.66 30.6806 16.6141 30.6119 16.6141C30.5433 16.6141 30.4746 16.66 30.4288 16.7289C30.4288 16.7518 30.406 16.7977 30.406 16.8206C30.0397 18.0138 29.1013 18.9316 27.9111 19.2758C27.8196 19.3217 27.7738 19.3905 27.7738 19.4594C27.7738 19.5282 27.8196 19.62 27.8882 19.643C27.9111 19.6659 27.934 19.6659 27.9569 19.6659C29.1242 20.0101 30.0397 20.9508 30.406 22.1211C30.406 22.144 30.4288 22.1899 30.4288 22.2129C30.4746 22.2817 30.5433 22.3276 30.6119 22.3276C30.6806 22.3276 30.7493 22.2817 30.7951 22.2129C30.7951 22.1899 30.8179 22.144 30.8179 22.1211C31.1613 20.9508 32.0997 20.033 33.267 19.6659C33.2899 19.6659 33.3128 19.6659 33.3357 19.643C33.4043 19.62 33.4501 19.5282 33.4501 19.4594C33.4501 19.3905 33.3814 19.3217 33.3128 19.2758ZM31.8937 19.5053C31.2299 19.5741 30.7264 20.1019 30.6348 20.7673L30.6119 21.0426L30.5662 20.7673C30.4975 20.1019 29.9711 19.5741 29.3073 19.5053L29.0327 19.4823L29.3073 19.4594C29.9711 19.3905 30.4975 18.8628 30.5662 18.1974L30.5891 17.922L30.6119 18.1974C30.6806 18.8628 31.207 19.3905 31.8708 19.4594L32.1455 19.4823L31.8937 19.5053Z" fill="#5D4E6D"/>
<path d="M27.2016 11.1761C25.3248 10.6713 23.8371 9.20277 23.2649 7.32124C23.2649 7.27535 23.242 7.20651 23.2191 7.16062C23.1733 7.06884 23.0589 7 22.9444 7C22.83 7 22.7155 7.06884 22.6698 7.16062C22.6698 7.20651 22.6469 7.27535 22.624 7.32124C22.0747 9.20277 20.564 10.6713 18.6872 11.1761C18.5728 11.2449 18.4812 11.3597 18.4812 11.4744C18.4812 11.5891 18.5499 11.7038 18.6643 11.7727C18.6872 11.7956 18.733 11.7956 18.7787 11.7956C20.6098 12.3463 22.0747 13.7919 22.624 15.6505C22.624 15.6964 22.6469 15.7423 22.6469 15.7882C22.7155 15.9029 22.8071 15.9717 22.9444 15.9717C23.0589 15.9717 23.1733 15.9029 23.242 15.7882C23.242 15.7423 23.2649 15.6964 23.2649 15.6505C23.8142 13.8148 25.2561 12.3463 27.1101 11.7956C27.1559 11.7956 27.2016 11.7956 27.2245 11.7727C27.339 11.7268 27.4076 11.6121 27.4076 11.4744C27.4076 11.3597 27.3161 11.2449 27.2016 11.1761ZM24.9815 11.5432C23.9286 11.658 23.1046 12.484 22.9902 13.5165L22.9444 13.9525L22.8986 13.5165C22.7613 12.484 21.9602 11.658 20.9074 11.5432L20.4725 11.4973L20.9074 11.4514C21.9373 11.3367 22.7613 10.5107 22.8758 9.47812L22.9215 9.04216L22.9673 9.47812C23.0817 10.5107 23.9057 11.3367 24.9357 11.4514L25.3706 11.4973L24.9815 11.5432Z" fill="#5D4E6D"/>
<path d="M41.6899 26.389C40.8659 26.389 40.4081 26.0678 40.1564 25.7924C39.6299 25.1959 39.6757 24.4157 39.6986 24.3469C39.7444 23.9798 40.0648 23.7044 40.4539 23.7273C40.8201 23.7732 41.0948 24.0945 41.0719 24.4846C41.0719 24.5534 41.0719 24.7599 41.1863 24.8746C41.3008 24.9894 41.5297 24.9894 41.7128 25.0123C42.079 25.0123 42.3994 25.3106 42.3994 25.7007C42.3765 26.0907 41.9874 26.4349 41.6899 26.389Z" fill="#5D4E6D"/>
</g>
<defs>
<clipPath id="clip0">
<rect width="42" height="43" fill="white" transform="translate(5 7)"/>
</clipPath>
</defs>
</svg>
