<svg width="60" height="71" viewBox="0 0 60 71" fill="none" xmlns="http://www.w3.org/2000/svg">
<circle cx="29.5" cy="35.5" r="19.5" fill="#FCEDE4"/>
<g clip-path="url(#clip0)">
<path d="M44.765 27.4892C43.4897 27.1351 42.4782 26.1393 42.1264 24.878C42.1044 24.8337 42.0824 24.8116 42.0824 24.7673C42.0385 24.7009 41.9725 24.6567 41.8845 24.6567C41.8186 24.6567 41.7306 24.7009 41.6867 24.7673C41.6867 24.8116 41.6647 24.8337 41.6647 24.878C41.2909 26.1393 40.2794 27.1351 39.0261 27.4892C38.9601 27.5113 38.8942 27.5999 38.8942 27.6884C38.8942 27.7548 38.9381 27.8433 39.0041 27.8875C39.0481 27.9097 39.0701 27.9097 39.0921 27.9097C40.3234 28.2859 41.2909 29.2595 41.6647 30.5209C41.6647 30.543 41.6867 30.5873 41.6867 30.6094C41.7306 30.6758 41.7966 30.7201 41.8845 30.7201C41.9725 30.7201 42.0385 30.6537 42.0824 30.6094C42.1044 30.5652 42.1044 30.543 42.1264 30.5209C42.4782 29.2595 43.4677 28.2859 44.699 27.9097C44.721 27.9097 44.765 27.9097 44.765 27.8875C44.8309 27.8433 44.8969 27.7769 44.8969 27.6884C44.8969 27.622 44.8309 27.5113 44.765 27.4892ZM43.5996 27.799C43.5776 27.8212 43.5556 27.8212 43.5337 27.8212C42.808 28.0203 42.2364 28.6178 42.0165 29.3481C42.0165 29.3702 41.9945 29.3923 41.9945 29.4145C41.9725 29.4587 41.9285 29.4808 41.8845 29.4808C41.8406 29.4808 41.7966 29.4366 41.7746 29.4145V29.3481C41.5547 28.6178 40.983 28.0424 40.2354 27.8212C40.2134 27.8212 40.1915 27.8212 40.1915 27.799C40.1255 27.7769 40.1255 27.7326 40.1255 27.6884C40.1255 27.622 40.1475 27.5999 40.1915 27.5777C40.9391 27.3786 41.5327 26.7811 41.7526 26.0287V25.9844C41.7746 25.9402 41.8186 25.918 41.8626 25.918C41.9065 25.918 41.9505 25.9623 41.9725 25.9844C41.9725 26.0066 41.9945 26.0287 41.9945 26.0508C42.2144 26.8032 42.808 27.3786 43.5556 27.5999C43.6216 27.622 43.6216 27.6662 43.6216 27.7105C43.6436 27.7548 43.6216 27.7769 43.5996 27.799Z" fill="#5D4E6D"/>
<path d="M53.8241 32.756C52.219 32.3134 50.9657 31.0742 50.5039 29.4809C50.482 29.4145 50.46 29.3923 50.46 29.3481C50.394 29.2596 50.306 29.1932 50.2181 29.1932C50.1301 29.1932 50.0202 29.2596 49.9982 29.3481C49.9762 29.3923 49.9542 29.4145 49.9542 29.4809C49.4705 31.0742 48.2172 32.3134 46.612 32.756C46.5241 32.8224 46.4581 32.9109 46.4581 32.9994C46.4581 33.11 46.5241 33.1986 46.612 33.2428C46.634 33.2649 46.678 33.2871 46.7 33.2871C48.2612 33.7518 49.4925 34.991 49.9542 36.5401C49.9542 36.6065 49.9762 36.6286 49.9762 36.6728C50.0422 36.7392 50.1301 36.8277 50.2181 36.8277C50.328 36.8277 50.416 36.7614 50.46 36.6728C50.4819 36.6286 50.482 36.6065 50.5039 36.5401C50.9657 34.9689 52.197 33.7297 53.7362 33.2871C53.7802 33.2871 53.8022 33.2649 53.8241 33.2428C53.9121 33.1986 54 33.11 54 32.9994C54 32.9109 53.9341 32.8224 53.8241 32.756ZM52.3509 33.1543C52.329 33.1764 52.307 33.1764 52.285 33.1764C51.3615 33.442 50.6359 34.1944 50.35 35.1017V35.1681C50.306 35.2344 50.2621 35.2566 50.1961 35.2566C50.1301 35.2566 50.0862 35.2123 50.0422 35.1681V35.1017C49.7563 34.1944 49.0307 33.442 48.1072 33.1764C48.0852 33.1764 48.0633 33.1764 48.0413 33.1543C47.9753 33.1322 47.9533 33.0879 47.9533 32.9994C47.9533 32.933 48.0193 32.8887 48.0413 32.8445C48.9868 32.6011 49.7344 31.8487 50.0202 30.9193C50.0202 30.875 50.0202 30.8529 50.0422 30.8529C50.0642 30.7865 50.1082 30.7643 50.1741 30.7643C50.2401 30.7643 50.2841 30.8086 50.328 30.8529V30.9193C50.6139 31.8487 51.3615 32.6011 52.307 32.8445C52.3729 32.8887 52.4169 32.933 52.4169 32.9994C52.4389 33.0879 52.4169 33.1322 52.3509 33.1543Z" fill="#5D4E6D"/>
<path d="M9.71555 29.68C8.5062 29.68 7.34083 29.0825 6.63722 28.0203C5.99956 27.0909 5.84564 25.9402 6.15348 24.8559C6.4833 23.7715 7.25288 22.9085 8.28632 22.488C13.2336 20.43 23.3702 17 35.7055 17C44.4567 17 50.2616 21.5144 52.3505 23.4617C52.6803 23.7715 52.8562 24.1699 52.8562 24.6124C52.8562 25.055 52.7023 25.4755 52.3944 25.7853C51.8227 26.3606 50.9212 26.4049 50.2836 25.9181C48.5905 24.5903 43.863 21.5365 36.519 21.5365C29.175 21.5365 16.3779 27.0024 11.2107 29.3702C10.749 29.5694 10.2213 29.68 9.71555 29.68ZM35.7055 18.2392C23.59 18.2392 13.6294 21.625 8.77006 23.6388C8.08843 23.9264 7.56072 24.5018 7.34083 25.2321C7.12095 25.9402 7.23089 26.7147 7.64867 27.3343C8.3303 28.3523 9.60561 28.7285 10.727 28.2195C15.9602 25.8295 28.9551 20.2751 36.541 20.2751C44.2808 20.2751 49.2721 23.5281 51.0532 24.9222C51.2071 25.0329 51.383 25.0108 51.5149 24.9001C51.6029 24.8116 51.6248 24.701 51.6248 24.6346C51.6248 24.5461 51.5809 24.4354 51.5149 24.369C49.536 22.5323 44.039 18.2392 35.7055 18.2392Z" fill="#5D4E6D"/>
<path d="M29.4393 50.3929C17.7197 50.3929 13.1242 42.7362 12.9263 42.4043C12.7504 42.1166 12.8603 41.7183 13.1461 41.5413C13.432 41.3642 13.8278 41.4749 14.0037 41.7625C14.0477 41.8289 18.4673 49.1316 29.4393 49.1316C38.1906 49.1316 42.5662 44.6172 44.0394 42.6698C44.2153 42.4485 44.1713 42.1387 43.9515 41.9396C31.6161 31.738 19.039 37.6686 18.929 37.735C18.6212 37.8899 18.2474 37.7572 18.0935 37.4473C17.9395 37.1375 18.0715 36.7613 18.3793 36.6064C18.5112 36.5401 31.7701 30.2554 44.743 40.988C45.4906 41.6076 45.6226 42.6698 45.0289 43.4444C43.4457 45.5245 38.7403 50.3929 29.4393 50.3929Z" fill="#5D4E6D"/>
<path d="M47.8653 45.8122C47.7553 45.8122 47.6454 45.7901 47.5354 45.7237L44.1932 43.5993C43.9074 43.4223 43.8194 43.024 43.9953 42.7363C44.1713 42.4486 44.567 42.3601 44.8529 42.5371L48.1951 44.6615C48.4809 44.8386 48.5689 45.2369 48.393 45.5246C48.283 45.7016 48.0631 45.8122 47.8653 45.8122Z" fill="#5D4E6D"/>
<path d="M46.1943 47.8924C46.0624 47.8924 45.9304 47.8481 45.8205 47.7596L42.6102 45.259C42.3464 45.0377 42.2804 44.6615 42.5003 44.3739C42.7202 44.1083 43.094 44.0419 43.3798 44.2632L46.5901 46.7638C46.8539 46.9851 46.9199 47.3613 46.7 47.649C46.5681 47.8039 46.3922 47.8924 46.1943 47.8924Z" fill="#5D4E6D"/>
<path d="M43.3578 49.7734C43.2039 49.7734 43.0499 49.707 42.94 49.5963L40.2794 47.0515C40.0376 46.808 40.0156 46.4097 40.2575 46.1663C40.4993 45.9229 40.8951 45.9007 41.137 46.1442L43.7975 48.689C44.0394 48.9324 44.0614 49.3308 43.8195 49.5742C43.6876 49.7291 43.5117 49.7734 43.3578 49.7734Z" fill="#5D4E6D"/>
<path d="M40.6752 51.433C40.4993 51.433 40.3454 51.3666 40.2135 51.2338L37.6409 48.4455C37.399 48.2021 37.421 47.8038 37.6629 47.5604C37.9047 47.3169 38.3005 47.3391 38.5424 47.5825L41.115 50.3708C41.3569 50.6142 41.3349 51.0125 41.093 51.2559C40.9831 51.3666 40.8292 51.433 40.6752 51.433Z" fill="#5D4E6D"/>
<path d="M37.333 52.4952C37.1351 52.4952 36.9372 52.4067 36.8053 52.2075L34.9143 49.3086C34.7165 49.0209 34.8044 48.6226 35.0902 48.4455C35.3761 48.2464 35.7719 48.3349 35.9478 48.6226L37.8388 51.5215C38.0367 51.8092 37.9487 52.2075 37.6629 52.3845C37.5529 52.4731 37.443 52.4952 37.333 52.4952Z" fill="#5D4E6D"/>
<path d="M33.4851 53.5131C33.2212 53.5131 32.9574 53.3361 32.8914 53.0484L31.9899 49.729C31.9019 49.3971 32.0998 49.043 32.4297 48.9545C32.7595 48.866 33.1113 49.0651 33.1992 49.3971L34.1007 52.7165C34.1887 53.0484 33.9908 53.4025 33.661 53.491C33.595 53.491 33.551 53.5131 33.4851 53.5131Z" fill="#5D4E6D"/>
<path d="M29.5492 54C29.5492 54 29.5272 54 29.5492 54C29.1974 54 28.9116 53.7123 28.9336 53.3582L29.0435 49.7512C29.0435 49.3971 29.3074 49.1316 29.6812 49.1537C30.033 49.1537 30.2968 49.4414 30.2748 49.7954L30.1649 53.4025C30.1649 53.7344 29.879 54 29.5492 54Z" fill="#5D4E6D"/>
<path d="M26.1191 54C25.7673 54 25.5034 53.7123 25.5034 53.3804V49.5299C25.5034 49.1758 25.7893 48.9103 26.1191 48.9103C26.4489 48.9103 26.7348 49.198 26.7348 49.5299V53.3804C26.7348 53.7123 26.4489 54 26.1191 54Z" fill="#5D4E6D"/>
<path d="M21.5016 53.2477C21.4137 53.2477 21.3257 53.2255 21.2378 53.1813C20.93 53.0264 20.798 52.6502 20.9519 52.3404L22.755 48.6669C22.9089 48.3571 23.2827 48.2243 23.5905 48.3792C23.8983 48.5341 24.0303 48.9103 23.8764 49.2201L22.0733 52.8936C21.9634 53.1149 21.7435 53.2477 21.5016 53.2477Z" fill="#5D4E6D"/>
<path d="M17.4118 51.8535C17.2799 51.8535 17.1479 51.8092 17.038 51.7429C16.7742 51.5216 16.7082 51.1232 16.9061 50.8577L19.4567 47.2949C19.6546 47.0072 20.0504 46.9408 20.3142 47.1621C20.6001 47.3613 20.6441 47.7596 20.4462 48.0252L17.8955 51.588C17.8076 51.765 17.6097 51.8535 17.4118 51.8535Z" fill="#5D4E6D"/>
<path d="M13.322 49.5742C13.1681 49.5742 13.0362 49.5299 12.9042 49.4193C12.6404 49.198 12.6184 48.7996 12.8383 48.5341L15.9606 44.9713C16.1805 44.7057 16.5762 44.6836 16.8401 44.9049C17.104 45.1262 17.126 45.5245 16.9061 45.7901L13.7838 49.3529C13.6518 49.5078 13.4979 49.5742 13.322 49.5742Z" fill="#5D4E6D"/>
<path d="M10.8154 46.5425C10.6395 46.5425 10.4636 46.4761 10.3317 46.3212C10.1118 46.0557 10.1558 45.6573 10.4197 45.436L13.7838 42.6256C14.0477 42.4043 14.4435 42.4486 14.6634 42.7142C14.8832 42.9797 14.8393 43.378 14.5754 43.5993L11.2112 46.4097C11.1013 46.4761 10.9694 46.5425 10.8154 46.5425Z" fill="#5D4E6D"/>
</g>
<defs>
<clipPath id="clip0">
<rect width="48" height="37" fill="white" transform="translate(6 17)"/>
</clipPath>
</defs>
</svg>
