<svg width="610" height="187" viewBox="0 0 610 187" fill="none" xmlns="http://www.w3.org/2000/svg">
<path d="M588.847 173.997C588.347 133.697 570.147 93.8969 541.747 65.5969C534.747 58.5969 527.047 52.1969 518.747 46.6969C510.747 41.2969 501.747 36.0969 491.847 35.6969C482.447 35.2969 475.447 40.7969 472.847 49.7969C471.347 54.9969 471.047 60.4969 470.447 65.8969C469.747 72.3969 469.147 78.8969 468.447 85.3969C467.747 92.1969 467.047 98.9969 466.347 105.697C465.647 112.097 465.347 118.697 463.647 124.897C462.147 130.397 459.347 135.597 454.547 138.897C449.547 142.297 443.647 142.297 438.347 139.397C433.447 136.697 429.647 132.397 425.847 128.297C421.747 123.897 417.547 119.497 413.147 115.297C404.347 106.697 395.147 98.3969 385.347 91.0969C376.747 84.6969 366.547 78.5969 355.547 78.1969C345.147 77.8969 336.847 83.5969 329.847 90.6969C322.447 98.0969 315.747 105.797 306.647 111.197C297.947 116.297 288.247 119.597 278.347 121.197C257.047 124.697 235.147 120.797 215.447 112.397C193.647 102.997 174.447 88.7969 155.947 73.9969C151.547 70.3969 147.047 66.7969 142.647 63.2969C142.247 62.9969 141.747 63.4969 142.147 63.7969C175.147 91.8969 213.047 121.697 258.347 123.397C277.847 124.097 297.947 119.597 313.647 107.697C321.647 101.597 327.547 93.4969 335.247 86.9969C339.347 83.5969 343.947 80.7969 349.147 79.6969C355.147 78.3969 361.247 79.3969 366.947 81.4969C378.447 85.7969 388.147 94.0969 397.347 101.997C406.747 110.097 415.647 118.697 424.147 127.697C430.347 134.397 438.047 143.797 448.347 142.297C458.247 140.897 463.547 130.897 465.347 121.997C466.547 115.997 466.947 109.897 467.547 103.797C468.247 97.2969 468.847 90.7969 469.547 84.2969C470.247 77.4969 470.947 70.6969 471.647 63.9969C472.247 58.5969 472.547 53.0969 474.447 47.9969C476.447 42.6969 480.347 38.4969 485.947 37.0969C490.947 35.8969 496.247 36.7969 501.047 38.2969C510.947 41.5969 519.947 48.0969 528.047 54.4969C560.147 80.0969 581.847 118.497 587.047 159.197C587.647 164.097 588.047 169.097 588.247 173.997C588.247 174.397 588.847 174.397 588.847 173.997Z" fill="#9F93B4"/>
<rect x="501" y="47.6765" width="109" height="95" fill="#DBEFE2"/>
<rect x="447" y="0.676514" width="54" height="47" fill="white"/>
</svg>
