<svg width="18" height="17" viewBox="0 0 18 17" fill="none" xmlns="http://www.w3.org/2000/svg">
<path d="M8.04894 1.60283C8.3483 0.681519 9.6517 0.681521 9.95106 1.60283L11.2451 5.58561C11.379 5.99763 11.763 6.27659 12.1962 6.27659H16.3839C17.3527 6.27659 17.7554 7.51621 16.9717 8.08561L13.5838 10.5471C13.2333 10.8017 13.0866 11.2531 13.2205 11.6651L14.5146 15.6479C14.8139 16.5692 13.7595 17.3354 12.9757 16.766L9.58778 14.3045C9.2373 14.0498 8.7627 14.0498 8.41221 14.3045L5.02426 16.766C4.24054 17.3354 3.18607 16.5692 3.48542 15.6479L4.7795 11.6651C4.91338 11.2531 4.76672 10.8017 4.41623 10.5471L1.02827 8.08561C0.244561 7.51621 0.647338 6.27659 1.61606 6.27659H5.8038C6.23703 6.27659 6.62099 5.99763 6.75486 5.58561L8.04894 1.60283Z" fill="#053B5D"/>
</svg>
