<svg width="48" height="48" viewBox="0 0 48 48" fill="none" xmlns="http://www.w3.org/2000/svg">
<path d="M17.3325 8C12.1875 8 8 12.19 8 17.335V30.6675C8 35.8125 12.19 40 17.335 40H30.6675C35.8125 40 40 35.81 40 30.665V17.3325C40 12.1875 35.81 8 30.665 8H17.3325ZM33.6 13.12C34.3075 13.12 34.88 13.6925 34.88 14.4C34.88 15.1075 34.3075 15.68 33.6 15.68C32.8925 15.68 32.32 15.1075 32.32 14.4C32.32 13.6925 32.8925 13.12 33.6 13.12ZM24 15.68C28.59 15.68 32.32 19.41 32.32 24C32.32 28.59 28.5875 32.32 24 32.32C19.41 32.32 15.68 28.5875 15.68 24C15.68 19.4125 19.41 15.68 24 15.68ZM24 18.24C20.8175 18.24 18.24 20.8175 18.24 24C18.24 27.1825 20.8175 29.76 24 29.76C27.1825 29.76 29.76 27.1825 29.76 24C29.76 20.8175 27.1825 18.24 24 18.24Z" fill="#5D4E6D"/>
</svg>
