<svg width="36" height="36" viewBox="0 0 36 36" fill="none" xmlns="http://www.w3.org/2000/svg">
<path d="M20.1 0.414795C16.3293 0.414795 13.2614 3.4144 13.1219 7.15229L9.62191 8.74917L1.50629 4.68042C1.38324 4.62026 1.24652 4.59839 1.11254 4.61479C0.759802 4.65855 0.497302 4.95933 0.500036 5.3148V30.5148C0.497302 30.7855 0.650427 31.0316 0.893786 31.1492L9.29379 35.3492C9.48793 35.4421 9.71215 35.4421 9.90629 35.3492L18.0219 31.2804L26.8157 35.3492C27.0125 35.4367 27.2395 35.4285 27.4282 35.3273L35.1282 31.1273C35.3551 31.007 35.4973 30.7718 35.5 30.5148V5.3148C35.4973 5.07144 35.3688 4.84448 35.1582 4.7187C34.9477 4.59292 34.6879 4.58745 34.4719 4.70229L26.9907 8.77104C27.0536 8.3144 27.1 7.86323 27.1 7.41479C27.1 3.55659 23.9582 0.414795 20.1 0.414795ZM20.1 1.81479C23.2008 1.81479 25.7 4.31401 25.7 7.41479C25.7 10.0152 24.2043 13.2746 22.6594 15.8367C21.3825 17.9531 20.5047 19.0058 20.1 19.5117C19.7008 19.0222 18.8231 18.0132 17.5407 15.9023C16.075 13.4878 14.6614 10.4226 14.5219 7.83042C14.5903 7.65269 14.5821 7.45581 14.5 7.28355C14.5711 4.24292 17.043 1.81479 20.1 1.81479ZM20.1 4.61479C18.175 4.61479 16.6 6.1898 16.6 8.11479C16.6 10.0398 18.175 11.6148 20.1 11.6148C22.025 11.6148 23.6 10.0398 23.6 8.11479C23.6 6.1898 22.025 4.61479 20.1 4.61479ZM20.1 6.01479C21.2676 6.01479 22.2 6.94722 22.2 8.11479C22.2 9.28237 21.2676 10.2148 20.1 10.2148C18.9325 10.2148 18 9.28237 18 8.11479C18 6.94722 18.9325 6.01479 20.1 6.01479ZM1.90004 6.45229L9.29379 10.1492C9.47972 10.2367 9.69847 10.2367 9.88441 10.1492L13.1657 8.66167C13.5129 11.4617 14.9621 14.3218 16.3594 16.6242C17.9645 19.2683 19.575 21.1742 19.575 21.1742C19.7118 21.33 19.9086 21.4175 20.1164 21.4121C20.3215 21.4093 20.5184 21.3136 20.6469 21.1523C20.6469 21.1523 22.2356 19.2164 23.8407 16.5585C24.9782 14.6718 26.1266 12.4269 26.7063 10.171L27.0125 10.2148C27.1575 10.2285 27.3024 10.1984 27.4282 10.1273L34.1 6.49604V30.0992L27.0782 33.9273L18.2844 29.8804C18.0985 29.7929 17.8797 29.7929 17.6938 29.8804L9.60004 33.9273L1.90004 30.0773V6.45229Z" fill="#5D4E6D"/>
</svg>
