<svg width="48" height="52" viewBox="0 0 48 52" fill="none" xmlns="http://www.w3.org/2000/svg">
<path d="M17.5384 51.5501H8.14205C6.66231 51.5501 5.45386 50.3417 5.45386 48.8619V48.6153C5.45386 47.1356 6.66231 45.9271 8.14205 45.9271H17.5384C19.0182 45.9271 20.2266 47.1356 20.2266 48.6153V48.8619C20.2019 50.3417 19.0182 51.5501 17.5384 51.5501ZM8.14205 47.1109C7.3282 47.1109 6.63765 47.7768 6.63765 48.6153V48.8619C6.63765 49.6758 7.30353 50.3663 8.14205 50.3663H17.5384C18.3523 50.3663 19.0428 49.7005 19.0428 48.8619V48.6153C19.0428 47.8015 18.3769 47.1109 17.5384 47.1109H8.14205Z" fill="#5D4E6D"/>
<path d="M9.5725 36.0622C9.39986 36.0622 9.20256 35.9882 9.07925 35.8155L4.51671 29.4773C4.31941 29.206 4.3934 28.8361 4.64003 28.6388C4.91131 28.4415 5.28125 28.5155 5.47855 28.7621L10.0411 35.1003C10.2384 35.3716 10.1644 35.7415 9.91777 35.9388C9.81912 36.0375 9.69581 36.0622 9.5725 36.0622Z" fill="#5D4E6D"/>
<path d="M9.47388 46.5437H8.29009V44.2501C8.29009 43.0416 7.79684 41.8579 6.95832 41.0193L5.28128 39.3423C3.35761 37.4186 2.05051 34.9524 1.50794 32.2395L0.940702 29.2307C0.842053 28.6635 0.768066 28.0963 0.768066 27.529V18.1573C0.768066 16.6529 2.00118 15.4198 3.50559 15.4198C5.00999 15.4198 6.24311 16.6529 6.24311 18.1573V27.2084L5.20729 28.2442L4.36877 27.4057L5.05932 26.7152V18.1573C5.05932 17.2941 4.36877 16.6036 3.50559 16.6036C2.64241 16.6036 1.95186 17.2941 1.95186 18.1573V27.529C1.95186 28.0223 2.00118 28.5155 2.09983 29.0088L2.66707 32.0176C3.13565 34.4838 4.34411 36.7281 6.09514 38.5038L7.77218 40.1808C8.83266 41.2413 9.44922 42.7457 9.44922 44.2501V46.5437H9.47388Z" fill="#5D4E6D"/>
<path d="M18.2044 46.5437H17.0206C17.0206 39.9095 16.0341 36.5061 13.5925 34.7798C10.6824 32.7081 7.89552 28.2196 7.10632 26.9125L8.11748 26.2959C9.67121 28.9348 12.1128 32.2889 14.2584 33.8179C17.0699 35.7909 18.2044 39.4656 18.2044 46.5437Z" fill="#5D4E6D"/>
<path d="M6.02112 27.4057L5.28125 26.4685L6.36639 25.6547L6.90897 26.7151L6.63768 26.1726L6.98295 26.6658L6.02112 27.4057Z" fill="#5D4E6D"/>
<path d="M4.54146 29.4774C3.85091 28.5156 4.09754 27.825 4.29483 27.4798L4.49213 27.2578L5.33065 28.0963L5.20734 28.2196C5.18268 28.2936 5.40464 28.6389 5.50329 28.7869L4.54146 29.4774Z" fill="#5D4E6D"/>
<path d="M7.25421 27.0851L7.20489 27.0111C6.98293 26.7152 6.90894 26.7152 6.90894 26.7152L6.14441 25.8027L6.36637 25.63C6.68698 25.5067 7.42685 25.3094 8.09273 26.2219L8.19138 26.3699L7.25421 27.0851Z" fill="#5D4E6D"/>
<path d="M39.8579 51.5501H30.4615C28.9818 51.5501 27.7733 50.3417 27.7733 48.8619V48.6153C27.7733 47.1356 28.9818 45.9271 30.4615 45.9271H39.8579C41.3376 45.9271 42.5461 47.1356 42.5461 48.6153V48.8619C42.5461 50.3417 41.3376 51.5501 39.8579 51.5501ZM30.4862 47.1109C29.6723 47.1109 28.9818 47.7768 28.9818 48.6153V48.8619C28.9818 49.6758 29.6477 50.3663 30.4862 50.3663H39.8825C40.6964 50.3663 41.3869 49.7005 41.3869 48.8619V48.6153C41.3869 47.8015 40.7211 47.1109 39.8825 47.1109H30.4862Z" fill="#5D4E6D"/>
<path d="M38.4275 36.0621C38.3041 36.0621 38.1808 36.0374 38.0822 35.9387C37.8109 35.7414 37.7616 35.3715 37.9589 35.1002L42.5214 28.762C42.7187 28.4907 43.0886 28.4414 43.3599 28.6387C43.6312 28.836 43.6805 29.2059 43.4832 29.4772L38.9207 35.8154C38.7974 35.9881 38.6248 36.0621 38.4275 36.0621Z" fill="#5D4E6D"/>
<path d="M39.7346 46.5437H38.5508V44.2501C38.5508 42.7457 39.1673 41.2413 40.2278 40.1808L41.9049 38.5038C43.6805 36.7281 44.8643 34.4838 45.3329 32.0176L45.9002 29.0088C45.9988 28.5155 46.0481 28.0223 46.0481 27.529V18.1573C46.0481 17.2941 45.3576 16.6036 44.4944 16.6036C43.6312 16.6036 42.9407 17.2941 42.9407 18.1573V26.7152L43.6312 27.4057L42.7927 28.2442L41.7569 27.2084V18.1573C41.7569 16.6529 42.99 15.4198 44.4944 15.4198C45.9988 15.4198 47.2319 16.6529 47.2319 18.1573V27.529C47.2319 28.0963 47.1826 28.6635 47.0593 29.2307L46.4921 32.2395C45.9741 34.9524 44.667 37.4186 42.7187 39.3423L41.0417 41.0193C40.1785 41.8825 39.7099 43.0416 39.7099 44.2501V46.5437H39.7346Z" fill="#5D4E6D"/>
<path d="M31.0041 46.5437H29.8203C29.8203 39.4903 30.9548 35.7909 33.7416 33.8179C35.8873 32.2889 38.3288 28.9348 39.8826 26.2959L40.8937 26.9125C40.1045 28.2442 37.3177 32.7328 34.4075 34.7798C31.9906 36.5061 31.0041 39.9095 31.0041 46.5437Z" fill="#5D4E6D"/>
<path d="M42.0035 27.4057L41.0909 26.7151L41.6582 25.6547L42.7187 26.4685L42.0035 27.4057Z" fill="#5D4E6D"/>
<path d="M43.4585 29.4774L42.4967 28.7869C42.5954 28.6389 42.8173 28.2936 42.694 28.121L42.6447 28.0963L43.4832 27.2578L43.6065 27.3811C43.9271 27.8004 44.1491 28.5156 43.4585 29.4774Z" fill="#5D4E6D"/>
<path d="M40.7704 27.0852L39.7839 26.444C39.8579 26.3453 39.9072 26.2713 39.9812 26.1727C40.4005 25.6055 41.0171 25.3835 41.609 25.6301L41.8802 25.8028L41.461 26.222L41.1157 26.6906C41.1157 26.6906 41.0171 26.7399 40.8691 26.9126L40.3018 26.6906L40.7704 27.0852Z" fill="#5D4E6D"/>
<path d="M18.5497 27.381C17.8592 26.8138 17.218 26.0739 16.774 25.1614C17.218 26.0985 17.8592 26.8138 18.5497 27.381Z" fill="#5D4E6D"/>
<path d="M16.5273 19.9823C16.626 20.0809 16.7246 20.1549 16.8233 20.2289C16.7246 20.1549 16.6013 20.0809 16.5273 19.9823C16.5273 20.007 16.5273 19.9823 16.5273 19.9823Z" fill="#5D4E6D"/>
<path d="M16.7986 20.2289C16.9219 20.3522 17.0699 20.4508 17.2178 20.5495C17.0699 20.4508 16.9466 20.3522 16.7986 20.2289Z" fill="#5D4E6D"/>
<path d="M19.4622 22.4979C19.0922 22.1033 18.6976 21.7087 18.2537 21.3388C18.0317 21.1415 17.7605 20.9688 17.5385 20.7962C17.4399 20.7222 17.3412 20.6235 17.2426 20.5496C17.3412 20.6235 17.4399 20.6975 17.5385 20.7715C17.7851 20.9442 18.0317 21.1415 18.2537 21.3141C18.673 21.7087 19.0922 22.1033 19.4622 22.4979Z" fill="#5D4E6D"/>
<path d="M20.1527 23.3118C19.9307 23.0405 19.7088 22.7692 19.4622 22.4979C19.7088 22.7692 19.9554 23.0405 20.1527 23.3118Z" fill="#5D4E6D"/>
<path d="M22.2244 27.4552C22.1258 27.0606 22.0025 26.666 21.8545 26.2714C22.0025 26.666 22.1258 27.0606 22.2244 27.4552Z" fill="#5D4E6D"/>
<path d="M28.8093 4.66705C26.565 2.10216 24.3947 0.351133 24.2961 0.277146L24.0001 0.0551852V0.0305223L23.9755 0.00585938V0.0551852L23.6795 0.301809C23.5809 0.375796 21.3859 2.12682 19.1663 4.69171C16.1328 8.1691 14.6038 11.2766 14.6038 13.9401C14.6038 14.4827 14.6284 15.0499 14.6777 15.6171C14.7271 16.0857 14.8011 16.5543 14.9244 17.0476C15.023 17.4668 15.1463 17.8861 15.319 18.256C15.4423 18.5273 15.5656 18.7986 15.7136 19.0205C15.7382 19.0452 15.7382 19.0699 15.7629 19.0945C15.6396 19.4151 15.5656 19.7111 15.4669 20.007C15.245 20.7716 15.1217 21.5114 15.1217 22.2513C15.1217 22.5473 15.1463 22.8185 15.171 23.0652C15.7629 29.1814 22.8903 30.3652 22.9643 30.3652L23.5562 30.4639V29.8966C23.5562 28.0716 23.1369 26.3453 22.2984 24.7422C21.5339 23.2378 20.3994 21.8567 18.9443 20.6483C18.673 20.4263 18.4264 20.229 18.1551 20.0564C17.9332 19.8837 17.7112 19.7111 17.4893 19.5385C17.3906 19.4398 17.292 19.3658 17.1686 19.2672C17.1193 19.2178 17.07 19.1685 17.0453 19.1192C16.996 19.0699 16.9713 19.0205 16.922 18.9959C17.07 18.5766 17.2673 18.182 17.4893 17.7628C19.4129 13.9894 22.841 10.1668 24.0001 8.93363C25.0359 10.0188 27.8474 13.1509 29.8204 16.505C30.3137 17.3188 30.7329 18.1574 31.0782 18.9959C31.0536 19.0452 31.0042 19.0945 30.9549 19.1192C30.9056 19.1685 30.8563 19.2178 30.8069 19.2672C30.7083 19.3658 30.6096 19.4398 30.511 19.5385C30.289 19.7111 30.0671 19.8837 29.8451 20.0564C29.5985 20.229 29.3272 20.451 29.0806 20.6483C27.6255 21.8567 26.491 23.2378 25.7265 24.7422C24.888 26.3453 24.444 28.0716 24.444 29.8966V30.4639L25.0359 30.3652C25.1099 30.3652 32.2127 29.1814 32.8292 23.0898C32.8539 22.8185 32.8786 22.5226 32.8786 22.2266C32.8786 21.2402 32.6319 20.155 32.2127 19.0699C32.2373 19.0452 32.262 19.0205 32.262 18.9959C32.3853 18.8232 32.4593 18.6506 32.558 18.478C32.6073 18.404 32.6566 18.33 32.6813 18.2313C32.8539 17.8367 32.9772 17.4175 33.0759 17.0229C33.1992 16.5543 33.2732 16.0857 33.3225 15.5925C33.3718 15.0252 33.3965 14.4827 33.3965 13.9154C33.3718 11.2519 31.8427 8.14444 28.8093 4.66705ZM17.218 20.5496C17.3166 20.6236 17.4153 20.7222 17.5139 20.7962C17.7605 20.9689 18.0072 21.1662 18.2291 21.3388C18.673 21.7087 19.0676 22.0787 19.4376 22.4979C19.6842 22.7692 19.9062 23.0405 20.1281 23.3118C20.2268 23.4351 20.3254 23.5831 20.4487 23.7064C20.5474 23.8544 20.646 24.0023 20.7447 24.1257C20.8433 24.2736 20.942 24.4216 21.016 24.5696C21.1393 24.7422 21.2379 24.9395 21.3119 25.1121C21.4106 25.2848 21.4846 25.4821 21.5832 25.6547C21.6079 25.6547 21.6079 25.6794 21.6079 25.6794C21.6079 25.704 21.6079 25.704 21.6325 25.7287C21.7065 25.9013 21.7805 26.074 21.8298 26.2466C21.9778 26.6412 22.1011 27.0111 22.1998 27.4304C22.2491 27.6277 22.2984 27.825 22.3231 28.0223C22.3724 28.2196 22.3971 28.4169 22.4217 28.6389C22.4464 28.8362 22.4711 29.0335 22.4711 29.2308V29.2554C22.3724 29.2308 22.2738 29.2061 22.1504 29.1568C22.1258 29.1568 22.1258 29.1568 22.1011 29.1568C22.0025 29.1321 21.8792 29.0828 21.7558 29.0581L21.3612 28.9348C21.2379 28.8855 21.1146 28.8362 20.9913 28.8115L20.2268 28.4662C20.0541 28.3676 19.8568 28.2936 19.6842 28.1949C19.6102 28.1456 19.5609 28.121 19.4869 28.0716C19.3389 27.973 19.1663 27.8743 18.9937 27.751C18.9197 27.7017 18.8457 27.6277 18.747 27.5784C18.673 27.5291 18.5991 27.4551 18.5004 27.4057C18.4018 27.3318 18.3278 27.2578 18.2291 27.1838C18.1551 27.1098 18.0565 27.0358 17.9825 26.9372C17.4893 26.4439 17.0453 25.8767 16.7001 25.1861C16.6014 24.9888 16.5274 24.7669 16.4288 24.5449C16.3794 24.4216 16.3548 24.3229 16.3055 24.1996C16.2315 23.953 16.1822 23.7311 16.1328 23.4598C16.1082 23.2871 16.0835 23.0652 16.0588 22.8679C16.0342 22.6706 16.0342 22.4486 16.0342 22.2266C16.0342 21.5114 16.1822 20.7716 16.4288 19.9824C16.4781 20.0317 16.5274 20.081 16.5767 20.1057C16.6261 20.1303 16.6754 20.1797 16.7247 20.229C16.9467 20.3523 17.07 20.451 17.218 20.5496ZM31.8181 22.8679V22.8925C31.7934 23.0898 31.7688 23.2871 31.7441 23.4844C31.7194 23.6077 31.6948 23.7064 31.6701 23.805C31.6454 23.9283 31.5961 24.0763 31.5715 24.1996C31.5468 24.3229 31.4975 24.4216 31.4481 24.5449C31.4235 24.6436 31.3742 24.7422 31.3248 24.8655C31.2755 24.9888 31.2262 25.0875 31.1769 25.1861C31.1275 25.2848 31.0782 25.3834 31.0289 25.4821C30.9796 25.5807 30.9302 25.6794 30.8563 25.7534C30.7823 25.8767 30.7083 26 30.6096 26.1233C30.511 26.2713 30.3877 26.4192 30.289 26.5426C30.1657 26.6905 30.0177 26.8385 29.8698 26.9618C29.8451 26.9865 29.8204 27.0111 29.7958 27.0358C29.6725 27.1591 29.5245 27.2578 29.4012 27.3811C29.3272 27.4551 29.2532 27.5044 29.1546 27.5537C29.0806 27.6277 29.0066 27.677 28.9079 27.7264C28.76 27.8497 28.5873 27.9483 28.4147 28.047C28.3407 28.0963 28.2914 28.121 28.2174 28.1703C28.0447 28.2689 27.8721 28.3676 27.6995 28.4416C27.4282 28.5649 27.1816 28.6882 26.9349 28.7868C26.8116 28.8362 26.6883 28.8855 26.565 28.9101C26.4417 28.9595 26.2937 29.0088 26.1704 29.0335C26.0471 29.0828 25.9484 29.1074 25.8251 29.1321C25.7018 29.1814 25.5785 29.2061 25.4799 29.2308V29.2061C25.4799 29.1814 25.4799 29.1814 25.4799 29.1568C25.4799 28.9348 25.5045 28.7129 25.5538 28.4909C25.5785 28.3183 25.6032 28.1456 25.6278 27.9976C25.6278 27.973 25.6278 27.9483 25.6278 27.9237C25.6525 27.8003 25.6772 27.677 25.7018 27.5537C25.7265 27.4551 25.7511 27.3811 25.7758 27.3071V27.2824C25.8251 27.1345 25.8498 26.9618 25.8991 26.8138C25.9484 26.6412 26.0224 26.4686 26.0718 26.2959C26.1211 26.148 26.1951 26 26.2444 25.852C26.417 25.4081 26.639 24.9888 26.9103 24.5696C27.1322 24.1996 27.3542 23.8544 27.6255 23.5091C27.7241 23.3611 27.8474 23.2378 27.9461 23.0898C27.9708 23.0652 27.9708 23.0652 27.9954 23.0405C28.1187 22.8925 28.242 22.7446 28.39 22.6212C28.5133 22.4733 28.6613 22.3253 28.8093 22.1773C28.9573 22.0293 29.1052 21.8814 29.2532 21.7581C29.4012 21.6101 29.5738 21.4621 29.7218 21.3388C29.9437 21.1415 30.1904 20.9689 30.437 20.7962C30.7823 20.5496 31.1275 20.2783 31.4235 19.9824V20.007C31.6701 20.7716 31.8181 21.5361 31.8181 22.2513C31.8428 22.4486 31.8181 22.6706 31.8181 22.8679ZM31.7688 17.7381C31.7441 17.7874 31.7194 17.8367 31.6948 17.8614C31.6454 17.7628 31.5961 17.6641 31.5468 17.5408C29.2285 12.781 24.592 8.04579 24.3207 7.7745L23.9755 7.42923L23.9508 7.45389V7.42923V7.47856L23.6302 7.82383C23.3589 8.09511 18.5251 13.0276 16.2561 17.8861C15.8122 16.8749 15.5903 15.6171 15.5903 13.9401C15.5903 8.761 22.3477 2.69406 23.9755 1.33763C24.7893 2.02817 26.8856 3.87785 28.76 6.22078C30.659 8.53904 32.336 11.3505 32.336 13.9401C32.3607 15.5431 32.1634 16.7516 31.7688 17.7381Z" fill="#5D4E6D"/>
<path d="M33.5691 9.99414C33.9637 10.9066 34.2103 11.8931 34.3336 12.8796C35.9613 15.4938 36.3559 17.7874 36.3559 19.8837C36.3559 28.2196 29.1298 31.9683 24.0001 31.993C18.8703 31.993 11.6442 28.2196 11.6442 19.8837C11.6442 17.8121 12.0142 15.4938 13.6665 12.8796C13.7898 11.8931 14.0365 10.9066 14.4311 9.99414C11.3236 13.5209 10.5837 17.3435 10.5837 19.8837C10.5837 28.9102 18.4017 32.9795 23.9754 33.0041H24.0001H24.0247C29.5984 32.9795 37.4164 28.9102 37.4164 19.8837C37.4164 17.3435 36.7012 13.5455 33.5691 9.99414Z" fill="#5D4E6D"/>
</svg>
