<svg width="52" height="50" viewBox="0 0 52 50" fill="none" xmlns="http://www.w3.org/2000/svg">
<path d="M48.293 34.2449C45.1873 35.2801 42.6113 33.1615 40.7334 31.6207L40.3241 31.2836C39.0482 30.2725 38.7352 28.7557 38.2537 26.4927C38.0611 25.6019 37.8685 24.6148 37.5555 23.4833C36.5925 19.9924 33.2942 19.1738 33.1497 19.1257L32.8608 19.0775L32.7405 19.0294H32.6201L32.5719 19.0053C31.8738 18.9812 30.5737 18.8127 29.8755 18.1386C29.4903 17.7775 29.2977 17.2959 29.2977 16.6941V14.9847C30.2126 14.118 30.7663 12.8902 30.7663 11.542V8.07516C30.7663 6.60658 30.0922 5.28244 29.0329 4.41574C28.9366 2.8027 27.9977 0.0340576 24.9401 0.0340576C21.4011 0.0340576 19.451 3.76571 18.8491 6.94363C18.7287 7.54551 18.7046 8.19554 18.6565 8.82149C18.5361 10.8197 18.4157 12.6976 16.3453 13.2995C15.936 13.4439 15.8638 13.7569 15.8397 13.8773C15.8156 14.2143 16.0564 14.5273 16.5379 14.7921C17.1157 15.1051 18.1991 15.4422 19.451 15.4422C20.414 15.4422 21.4492 15.2255 22.3881 14.6236C22.5326 14.8162 22.7011 14.9847 22.8937 15.1292V16.67C22.8937 17.2719 22.677 17.7293 22.3159 18.1145C21.4492 18.9571 19.8602 19.0053 19.4269 19.0053C19.4028 19.0053 19.4028 19.0053 19.4028 19.0053L19.3065 19.0294L18.8491 19.1016C18.7046 19.1497 15.4063 19.9683 14.4433 23.4592C14.1544 24.5666 13.9378 25.5778 13.7452 26.4686C13.2637 28.7557 12.9507 30.2484 11.6747 31.2836L11.2654 31.5966C9.41163 33.1374 6.83558 35.256 3.68174 34.2208C2.52613 33.9078 1.73165 33.956 1.25015 34.3893C0.961244 34.6541 0.864943 35.0393 0.937168 35.4727L1.46682 38.4821C1.61127 38.8673 2.09278 39.4692 2.95948 39.4692C3.15208 39.4692 3.34468 39.421 3.58544 39.3488L8.42454 37.9765L8.20787 38.2413C7.58191 39.0599 7.38931 40.0951 7.63006 41.0822C7.89489 42.0693 8.59307 42.8638 9.532 43.273L17.1157 46.475C17.3083 46.5473 17.5009 46.5954 17.6935 46.5954C17.8139 46.9565 18.0546 47.6788 18.4398 48.69C18.8009 49.653 20.6066 49.9178 22.5807 49.9178C24.892 49.9178 27.4198 49.5326 28.1421 49.2918C41.6001 44.2361 43.4539 43.3212 44.6336 41.2026C45.091 40.384 45.091 39.3006 44.7058 38.3136L48.293 39.3488H48.3893C48.606 39.421 48.8227 39.4451 49.0153 39.4451C49.9061 39.4451 50.4116 38.8432 50.5802 38.3858L51.0617 35.4727C51.158 35.0393 51.0135 34.6541 50.7487 34.3893C50.2913 34.0041 49.4727 33.9319 48.293 34.2449ZM29.8274 9.35114C26.3365 9.37522 23.303 7.23253 22.4604 6.5825C23.0622 5.21022 24.4105 4.27129 25.9994 4.27129C28.118 4.27129 29.8274 5.98062 29.8274 8.09924V9.35114ZM18.5361 14.4792C17.9102 14.3829 17.4046 14.2143 17.1157 14.0699C19.3547 13.155 19.4991 10.8197 19.6195 8.91779C19.6676 8.29184 19.6917 7.68996 19.788 7.16031C19.9084 6.53435 21.064 0.997064 24.9642 0.997064C27.0828 0.997064 27.781 2.68233 27.9977 3.76571C27.9977 3.76571 27.9977 3.76571 27.9736 3.76571C27.3717 3.47681 26.6976 3.33235 25.9994 3.33235C23.3752 3.33235 21.2325 5.45097 21.2325 8.09924V11.5901C21.2325 12.4568 21.4492 13.2513 21.8585 13.9254C20.6307 14.6236 19.2824 14.5995 18.5361 14.4792ZM22.1715 11.5661V8.07516C22.1715 7.88256 22.1955 7.71403 22.2196 7.54551C23.4234 8.43629 26.3365 10.3142 29.7792 10.3142C29.8033 10.3142 29.8274 10.3142 29.8514 10.3142V11.5661C29.8514 13.6847 28.1421 15.394 26.0235 15.394C23.8808 15.394 22.1715 13.6847 22.1715 11.5661ZM22.9659 18.8368C23.5437 18.3071 23.8326 17.5849 23.8326 16.7181V15.8033C24.4827 16.1403 25.2049 16.3329 25.9994 16.3329C26.8661 16.3329 27.6606 16.1163 28.3588 15.707V16.7181C28.3588 17.5849 28.6477 18.283 29.2255 18.8368C29.2496 18.8608 29.2736 18.8608 29.2736 18.8849C29.081 19.4386 28.744 20.835 29.057 21.9906C29.1533 22.3517 28.3347 22.8092 27.5884 23.2184C27.0587 23.5314 26.4809 23.8685 25.9994 24.2777C25.542 23.8685 24.9642 23.5314 24.4105 23.2184C23.6641 22.8092 22.8456 22.3517 22.9419 21.9906C23.2548 20.8831 22.9659 19.6072 22.7733 18.9812C22.8456 18.9331 22.9178 18.8849 22.9659 18.8368ZM19.3787 23.6999L19.4269 19.9924H19.451C19.8362 19.9924 20.9677 19.9442 21.9789 19.4868C22.1474 20.1127 22.2918 21.0035 22.0752 21.7258C21.7863 22.7851 22.8937 23.4351 23.9771 24.037C24.4827 24.3259 25.0123 24.6148 25.4216 24.9518C25.6624 25.1685 25.855 25.3852 25.9513 25.626L26.0235 25.6741L26.0957 25.626C26.2161 25.3852 26.3846 25.1685 26.6254 24.9518C27.0106 24.6148 27.5643 24.3259 28.0699 24.037C29.1533 23.411 30.2607 22.7851 29.9718 21.7258C29.7311 20.9554 29.9237 19.9924 30.0922 19.4386C31.007 19.8961 32.0423 19.9683 32.5719 19.9683L32.596 23.4833L32.6442 23.6999C33.9442 26.4686 32.7886 27.9131 32.5479 28.202C32.4997 28.2261 31.8256 28.7798 31.2959 29.8391H26.4087H25.6624H20.7751C20.2454 28.7798 19.5713 28.2261 19.5232 28.202C19.2584 27.9372 18.0787 26.4686 19.3787 23.6999ZM25.6864 44.3564L18.0546 39.8062C19.2102 38.4099 20.0528 37.0857 20.6066 35.8097H25.6383H26.3846H31.4163C31.9701 37.1339 32.8608 38.5062 34.0405 39.9266C29.8755 42.2619 26.5291 43.9471 25.6864 44.3564ZM19.3306 29.3576C19.7158 29.815 20.2454 30.6577 20.3899 31.9096C20.6066 34.0763 19.5473 36.5802 17.2601 39.3247L12.9747 36.7728C12.9266 36.7487 12.9025 36.7246 12.8544 36.7246C15.0934 35.8579 16.9472 34.1967 18.0305 32.054L19.3306 29.3576ZM21.3048 31.7892C21.2566 31.4281 21.1844 31.091 21.0881 30.778H25.6142H26.3605H30.8867C30.7904 31.091 30.7181 31.4281 30.67 31.7892C30.5737 32.7763 30.6941 33.8115 31.0311 34.8708H26.3365H25.5901H20.8955C21.2807 33.7874 21.4251 32.7522 21.3048 31.7892ZM31.633 31.9096C31.7534 30.6577 32.3071 29.815 32.6923 29.3576L34.0164 32.0299C35.1239 34.2449 37.0499 35.9542 39.3852 36.7968C37.6036 37.8802 35.8702 38.8914 34.2331 39.8303L34.7868 39.3488C32.4756 36.5802 31.4163 34.0763 31.633 31.9096ZM3.41691 38.4821C2.62243 38.6988 2.38168 38.2654 2.38168 38.2654L1.8761 35.3282C1.82795 35.1597 1.90018 35.1116 1.92425 35.1116C1.9724 35.0634 2.2613 34.8227 3.46506 35.1597C7.07633 36.3394 9.98943 33.956 11.9154 32.367L12.3247 32.0299C13.8655 30.8021 14.2026 29.0928 14.7082 26.6853C14.9008 25.8186 15.0934 24.8315 15.4063 23.7481C15.9841 21.5813 17.6453 20.6424 18.5361 20.2572L18.512 23.411C17.2361 26.2519 18.175 28.0094 18.6565 28.6354L17.1879 31.5966C16.1045 33.7874 14.1544 35.4245 11.7951 36.0986L11.0006 36.3394C10.9524 36.3394 10.9284 36.3394 10.9043 36.3635L10.0376 36.6042C10.0135 36.6042 9.98943 36.6283 9.94128 36.6524L3.41691 38.4821ZM9.9172 42.4304C9.2431 42.1415 8.7616 41.5637 8.56899 40.8655C8.37639 40.1674 8.52084 39.421 8.97827 38.8432L9.532 38.121C9.74868 37.8321 10.0376 37.6154 10.3506 37.4709C10.3746 37.4469 10.3987 37.4228 10.4469 37.4228L10.9765 37.2783C11.0969 37.2302 11.1932 37.2302 11.3136 37.2302C11.6988 37.2302 12.108 37.3506 12.4451 37.5432L24.9401 45.0065C24.2419 45.6565 22.8937 45.3676 21.0159 44.6694C19.9806 44.3083 19.0658 44.549 18.4157 45.4157C18.1991 45.7287 17.7657 45.7528 17.4527 45.6324L9.9172 42.4304ZM19.3306 48.4011C19.0176 47.5103 18.7769 46.8602 18.6324 46.451C18.8491 46.3547 19.0658 46.1861 19.2102 45.9935C19.5954 45.4639 20.0769 45.3194 20.7029 45.5602C22.2678 46.1139 24.7957 47.101 25.9513 45.2713C25.9513 45.2472 25.9753 45.2472 25.9753 45.2472C26.0716 45.1991 26.2161 45.1268 26.4087 45.0305L27.2032 48.5937C27.2032 48.5937 27.2032 48.5937 27.1791 48.5937C24.7957 49.0992 19.6676 49.2918 19.3306 48.4011ZM43.8391 40.7933C42.8039 42.5749 40.8779 43.5138 28.094 48.3529L27.2513 44.5972C29.6829 43.3693 35.0035 40.5766 40.4445 37.182C40.4927 37.158 40.5167 37.1339 40.5649 37.1339H40.589C41.8649 36.5561 42.7798 37.2061 43.1891 37.6635C43.2854 37.7598 43.3576 37.8561 43.4058 37.9524H43.4298C44.0799 38.8191 44.2484 40.047 43.8391 40.7933ZM50.1468 35.3282L49.6894 38.145C49.6412 38.2654 49.4005 38.6988 48.606 38.4821L48.5097 38.4339L43.9836 37.1339H43.9595C43.9354 37.0857 43.9113 37.0617 43.8873 37.0135C42.9965 36.0505 41.7927 35.7375 40.5649 36.1468H40.5408L40.2519 36.0505C37.8925 35.3764 35.9425 33.7393 34.8591 31.5484L33.3905 28.5872C33.872 27.9612 34.835 26.2038 33.5349 23.3629L33.5109 20.209C34.4016 20.5702 36.0628 21.5332 36.6406 23.6999C36.9295 24.7833 37.1462 25.7704 37.3388 26.6371C37.8444 29.0205 38.2055 30.7299 39.7223 31.9818L40.1315 32.3188C42.0575 33.9078 44.9706 36.2912 48.5578 35.1116C49.7616 34.7986 50.0746 35.0393 50.0987 35.0634C50.1227 35.1116 50.195 35.1597 50.1468 35.3282Z" fill="#5D4E6D"/>
<path d="M4.64535 23.1463H8.03994C10.1104 23.1463 11.7475 21.5333 11.7475 19.4387C11.7475 19.0294 11.4345 18.7165 11.0253 18.7165H8.54552C8.377 17.4886 7.53436 16.3812 6.95656 15.7311C6.57136 15.37 6.06578 15.4904 5.7528 15.7793C5.31945 16.2367 4.38052 17.3683 4.18792 18.7165H1.66003C1.25075 18.7165 0.913696 19.0535 0.913696 19.4387C0.913696 21.4851 2.59896 23.1463 4.64535 23.1463ZM8.01587 22.2314H7.67882C8.13624 21.6536 8.49737 20.7388 8.5696 19.6795H10.7845C10.6641 21.124 9.50853 22.2314 8.01587 22.2314ZM6.35468 16.4534C6.83618 17.0071 7.65474 18.0905 7.65474 19.222C7.65474 20.8351 6.98064 21.9666 6.37876 21.9666C5.7528 21.9666 5.10277 20.8592 5.10277 19.222C5.10277 17.9461 6.11393 16.7664 6.35468 16.4534ZM4.18792 19.6795C4.26014 20.7388 4.62127 21.6536 5.12685 22.2314H4.64535C3.17676 22.2314 1.973 21.0999 1.85263 19.6795H4.18792Z" fill="#5D4E6D"/>
<path d="M43.9842 22.0628H47.3788C49.4492 22.0628 51.0863 20.4498 51.0863 18.3552C51.0863 17.97 50.7734 17.633 50.3641 17.633H47.9084C47.7399 16.3811 46.8973 15.2736 46.3435 14.6477C45.9343 14.2865 45.4287 14.4069 45.1398 14.6958C44.7064 15.1532 43.7675 16.2848 43.599 17.633H41.047C40.6377 17.633 40.3007 17.97 40.3007 18.3552C40.2766 20.4016 41.9378 22.0628 43.9842 22.0628ZM47.3788 21.1239H46.9936C47.4751 20.5701 47.8362 19.6553 47.9084 18.596H50.1233C50.027 20.0405 48.8474 21.1239 47.3788 21.1239ZM45.6935 15.3699C46.175 15.8996 46.9936 17.007 46.9936 18.1385C46.9936 19.7516 46.3195 20.859 45.7176 20.859C45.1157 20.859 44.4416 19.7516 44.4416 18.1385C44.4657 16.8626 45.4768 15.707 45.6935 15.3699ZM43.5508 18.596C43.623 19.6553 43.9842 20.5701 44.4897 21.1239H43.9842C42.5156 21.1239 41.3118 19.9923 41.1915 18.5719H43.5508V18.596Z" fill="#5D4E6D"/>
</svg>
