<svg width="391" height="388" viewBox="0 0 391 388" fill="none" xmlns="http://www.w3.org/2000/svg">
<g clip-path="url(#clip0)">
<path d="M229.01 0.388702C228.063 0.388702 227.116 0.50964 226.169 0.872453L208.482 7.13097C206.222 7.9473 204.45 9.73112 203.687 11.9987C202.953 14.2663 203.289 16.7455 204.664 18.741L232.889 60.1923L242.084 96.1107L238.632 112.891L222.656 121.931C220.121 123.382 218.593 126.103 218.746 129.036L219.204 137.985C219.327 140.948 221.19 143.579 223.97 144.728L247.155 154.463L251.217 169.852L239.487 187.57C238.327 189.323 237.96 191.47 238.418 193.526C238.877 195.552 240.16 197.305 241.962 198.394L258.304 208.28C259.526 209.006 260.962 209.399 262.367 209.399C263.772 209.399 265.177 209.036 266.399 208.28L281.367 199.301C282.497 198.635 283.444 197.668 284.086 196.549L293.464 180.313L309.318 147.177C309.745 146.3 309.99 145.363 310.051 144.395L310.478 138.439L322.819 138.167C325.874 138.106 328.593 136.292 329.815 133.571L338.429 114.312C338.643 113.798 338.826 113.223 338.948 112.679L343.927 88.0382C344.721 84.1379 342.4 80.2982 338.551 79.1492L326.76 75.5514C324.438 74.856 321.934 75.249 319.978 76.6096L304.98 87.1009L283.933 78.0608L276.48 58.2875C275.991 57.0177 275.166 55.8688 274.067 54.992L252.348 37.5467L235.822 4.71222C234.478 2.08183 231.82 0.479406 229.01 0.388702ZM190.857 186.209C189.055 186.421 187.344 187.267 186.061 188.598L174.392 200.903C173.262 202.082 172.529 203.594 172.315 205.196L170.94 215.657L159.974 226.088C159.149 226.844 158.508 227.812 158.111 228.87L147.725 255.476L93.9927 291.425C93.6567 291.667 93.3207 291.909 93.0152 292.211L67.5086 315.945C66.9587 316.489 66.4394 317.124 66.0423 317.789L47.8975 350.049C46.4618 352.649 46.6145 355.824 48.3251 358.273L55.2287 368.008C56.3895 369.611 58.1001 370.73 60.0551 371.123C68.761 372.937 81.7129 375.658 82.9653 375.99C84.6759 376.565 113.909 386.965 113.909 386.965C114.765 387.268 115.65 387.419 116.567 387.419C118.308 387.419 120.019 386.844 121.424 385.726L145.617 366.648C146.442 366.043 147.114 365.227 147.602 364.32L163.609 335.476C164.006 334.751 164.281 333.965 164.434 333.148L167.794 315.159L176.683 307.963L200.357 302.853C202.19 302.43 203.839 301.402 204.939 299.89L211.018 291.848C213.553 288.462 212.881 283.685 209.521 281.115L203.015 276.096L211.965 269.989C213.034 269.323 213.95 268.386 214.561 267.268L233.134 234.584C234.417 232.347 234.478 229.626 233.317 227.298L231.301 223.397L234.203 214.509C235.272 211.304 234.081 207.766 231.301 205.801L222.229 199.482C219.693 197.698 216.302 197.577 213.675 199.149L206.283 203.533L198.555 190.079C197.333 187.963 195.164 186.512 192.69 186.209C192.079 186.149 191.468 186.149 190.857 186.209Z" fill="#5D4E6D"/>
</g>
<defs>
<clipPath id="clip0">
<rect width="391" height="387" fill="white" transform="translate(0 0.418945)"/>
</clipPath>
</defs>
</svg>
