<svg width="439" height="449" viewBox="0 0 439 449" fill="none" xmlns="http://www.w3.org/2000/svg">
<g clip-path="url(#clip0)">
<path d="M98.7704 177.521C119.16 159.717 132.519 135.733 144.997 112.107C151.319 100.149 157.528 88.2217 164.573 76.6814C171.253 65.6052 178.724 53.8288 188.683 45.4174C197.542 37.9119 210.658 31.7093 221.459 39.2009C232.838 47.0264 233.071 62.4816 229.698 74.5044C227.701 81.6375 224.67 88.5589 221.897 95.5332C219.178 102.249 216.375 109.109 213.542 115.855C207.875 129.348 202.238 142.955 197.263 156.751C187.45 183.939 179.948 212.464 181.012 241.503C181.744 261.101 186.175 284.473 202.052 297.691C222.837 315.093 250.801 301.857 270.635 290.189C277.72 286.091 284.744 281.765 292.035 277.979C299.523 274.018 307.247 270.482 315.093 267.402C323.023 264.177 331.075 261.409 339.249 259.096C346.397 257.059 353.493 255.28 360.864 254.527C373.918 253.106 387.007 255.464 397.391 263.678C406.352 270.685 412.567 281.116 416.017 292.166C424.168 318.94 414.271 346.273 401.679 369.93C398.267 376.342 394.597 382.702 390.927 389.061C390.427 389.928 389.127 389.177 389.627 388.31C403.7 364.256 419.442 337.312 417.55 308.372C415.877 283.895 400.827 258.725 374.704 255.583C359.449 253.806 343.846 258.476 329.504 263.296C313.484 268.688 298.005 275.646 283.296 284.108C269.749 291.893 256.393 300.847 241.153 305.053C231.384 307.793 220.692 308.458 211.097 304.554C193.206 297.495 184.889 277.853 181.5 260.189C176.572 234.506 180.269 207.735 187.114 182.685C194.799 154.845 206.544 128.483 217.597 101.817C220.43 95.071 223.233 88.2107 225.777 81.2975C228.405 74.2397 230.569 66.8176 230.24 59.2081C229.927 52.5717 227.35 45.6868 222.237 41.1919C217.155 36.811 210.299 35.8378 203.948 37.6617C190.905 41.401 181.8 53.0044 174.253 63.5798C166.652 74.4137 160.093 85.9458 153.71 97.6755C141.307 120.671 129.893 144.623 112.6 164.407C108.388 169.201 103.971 173.684 99.0899 177.802C98.8703 178.35 98.3451 177.757 98.7704 177.521Z" fill="#A195B6"/>
</g>
<rect x="145" y="238" width="100" height="108" fill="#D6E5E3"/>
<rect width="20.1644" height="20.1644" rx="6.72145" transform="matrix(-0.965926 -0.258819 -0.258819 0.965926 116.215 264.876)" fill="#DBEFE2"/>
<rect width="20.1644" height="20.1644" rx="3.36073" transform="matrix(-0.258819 0.965926 0.965926 0.258819 68.1709 179)" fill="#DBEFE2"/>
<rect width="13.4429" height="13.4429" rx="3.36073" transform="matrix(0.939693 -0.34202 -0.34202 -0.939693 10.4172 271.847)" fill="#FBECE7"/>
<rect width="13.4429" height="13.4429" rx="3.36073" transform="matrix(0.939693 -0.34202 -0.34202 -0.939693 14.3967 312.175)" fill="#FBECE7"/>
<defs>
<clipPath id="clip0">
<rect width="389" height="277" fill="white" transform="matrix(-0.258819 -0.965926 -0.965926 0.258819 438.621 376.526)"/>
</clipPath>
</defs>
</svg>
