<svg width="60" height="71" viewBox="0 0 60 71" fill="none" xmlns="http://www.w3.org/2000/svg">
<circle cx="29.5" cy="35.5" r="19.5" fill="#DBEFE2"/>
<g clip-path="url(#clip0)">
<path d="M33.6447 55H22.7598C19.0266 55 15.9812 51.9443 15.9812 48.1986C15.9812 46.3061 17.5137 44.7881 19.3803 44.7881H36.9652C38.8514 44.7881 40.3643 46.3258 40.3643 48.1986C40.4036 51.9443 37.3778 55 33.6447 55ZM19.3999 46.1286C18.2604 46.1286 17.3369 47.0552 17.3369 48.1986C17.3369 51.1952 19.7733 53.6397 22.7598 53.6397H33.6251C36.6116 53.6397 39.0479 51.1952 39.0479 48.1986C39.0479 47.0552 38.1245 46.1286 36.9849 46.1286H19.3999Z" fill="#5D4E6D"/>
<path d="M36.6901 46.1287H19.7732V42.521C19.7732 41.3184 20.7556 40.3327 21.9541 40.3327H34.5092C35.7077 40.3327 36.6901 41.3184 36.6901 42.521V46.1287ZM21.1289 44.7881H35.354V42.5407C35.354 42.0873 34.9807 41.7127 34.5288 41.7127H21.9541C21.5022 41.7127 21.1289 42.0873 21.1289 42.5407V44.7881Z" fill="#5D4E6D"/>
<path d="M16.9439 53.3638H16.826C10.853 53.3638 6 48.4747 6 42.5013C6 36.5082 10.853 31.6388 16.826 31.6388C22.1703 31.6388 26.7876 35.6408 27.5342 40.9439C27.5931 41.3184 27.3377 41.6536 26.9644 41.7127C26.5911 41.7719 26.2571 41.5156 26.1981 41.141C25.5497 36.4688 21.5219 32.9794 16.826 32.9794C11.5997 32.9794 7.33606 37.2573 7.33606 42.5013C7.33606 47.7452 11.5997 52.0035 16.826 52.0035C17.1993 52.0035 17.553 52.2992 17.553 52.6738C17.553 53.0484 17.3172 53.3638 16.9439 53.3638Z" fill="#5D4E6D"/>
<path d="M51.3672 48.0606C50.7188 48.0606 50.0704 47.8241 49.5596 47.3509L21.5219 20.9734C21.1683 20.6383 20.9718 20.2046 20.9718 19.7314C20.9718 19.2583 21.1486 18.8049 21.4826 18.4697L24.4102 15.5323C24.7442 15.1775 25.1175 14.9606 25.6677 15C26.1392 15 26.5911 15.1972 26.9055 15.552L53.2731 43.6053C54.2555 44.6501 54.2358 46.2667 53.2338 47.2721C52.7229 47.8044 52.0352 48.0606 51.3672 48.0606ZM50.4831 46.3652C50.9939 46.8384 51.7798 46.8384 52.271 46.3258C52.7622 45.8329 52.7819 45.0444 52.2907 44.5318L25.9231 16.4786C25.8641 16.3997 25.6873 16.3406 25.648 16.3603C25.5498 16.3603 25.4515 16.3997 25.3729 16.4786L22.4258 19.416C22.3472 19.4949 22.3079 19.5934 22.3079 19.7117C22.3079 19.83 22.3472 19.9286 22.4258 19.9877L50.4831 46.3652Z" fill="#5D4E6D"/>
<path d="M25.6087 24.5811C25.4318 24.5811 25.2747 24.5219 25.1371 24.3839C24.8817 24.1277 24.862 23.694 25.1371 23.4377L29.3418 19.1597C29.5972 18.8837 30.0295 18.8837 30.2849 19.1597C30.5403 19.416 30.56 19.8497 30.2849 20.106L26.0802 24.3839C25.9623 24.5022 25.7855 24.5811 25.6087 24.5811Z" fill="#5D4E6D"/>
</g>
<defs>
<clipPath id="clip0">
<rect width="48" height="40" fill="white" transform="translate(6 15)"/>
</clipPath>
</defs>
</svg>
