<svg width="51" height="57" viewBox="0 0 51 57" fill="none" xmlns="http://www.w3.org/2000/svg">
<circle cx="25.5" cy="28.5" r="19.5" fill="#FCEDE4"/>
<g clip-path="url(#clip0)">
<path d="M47.4418 51H35.4578L29.6017 45.0151C29.1075 44.5101 28.4404 44.2323 27.7238 44.2323H8.74704C8.32699 44.2323 8.00576 43.904 8.00576 43.4747C8.00576 43.0454 8.32699 42.7171 8.74704 42.7171H27.7238C28.8357 42.7171 29.8735 43.1464 30.6395 43.9545L36.0755 49.4848H47.4418C48.5784 49.4848 49.4927 48.5505 49.4927 47.3888C49.4927 46.2272 48.5784 45.2929 47.4418 45.2929H38.1758L30.1947 37.6414C29.5029 36.9596 28.5886 36.606 27.625 36.606H1.43309C0.914196 36.606 0.444719 36.3282 0.197626 35.8737C-0.0741762 35.4191 -0.0741762 34.8636 0.197626 34.409L8.40111 19.5858C8.94472 18.601 9.88367 17.9697 10.9709 17.8181C12.0334 17.6666 13.0959 18.0202 13.8866 18.8282L26.3154 31.8333C26.6119 32.1363 26.5872 32.6161 26.2906 32.9191C25.9941 33.2222 25.5247 33.1969 25.2281 32.8939L12.7994 19.8888C12.3793 19.4343 11.7616 19.207 11.1438 19.308C10.5261 19.3838 9.98251 19.7626 9.686 20.3181L1.48251 35.1414L27.625 35.0656C28.9593 35.0656 30.2441 35.5707 31.2078 36.505L38.7688 43.7525H47.4418C49.3938 43.7525 51 45.3686 51 47.3888C51 49.3838 49.4186 51 47.4418 51Z" fill="#5D4E6D"/>
<path d="M18.6555 33.0454C18.4826 33.0454 18.2849 32.9696 18.1614 32.8434L14.6526 29.5353L13.0959 31.6818C12.8489 32.01 12.3794 32.0858 12.0582 31.8333C11.7369 31.5807 11.6628 31.1009 11.9099 30.7727L13.5654 28.4747C13.7878 28.1716 14.1337 27.9696 14.5044 27.9191C14.875 27.8939 15.2457 28.0201 15.5422 28.2727L19.1744 31.707C19.4709 31.9848 19.4957 32.4646 19.2239 32.7929C19.0509 32.9696 18.8532 33.0454 18.6555 33.0454Z" fill="#5D4E6D"/>
<path d="M18.6555 17.1869C15.6409 17.1869 13.1947 14.6869 13.1947 11.6061C13.1947 8.52525 15.6409 6 18.6555 6C21.67 6 24.1162 8.5 24.1162 11.5808C24.1162 14.6616 21.67 17.1869 18.6555 17.1869ZM18.6555 7.51515C16.4563 7.51515 14.6773 9.33333 14.6773 11.5808C14.6773 13.8283 16.4563 15.6465 18.6555 15.6465C20.8546 15.6465 22.6337 13.8283 22.6337 11.5808C22.6337 9.33333 20.8546 7.51515 18.6555 7.51515Z" fill="#5D4E6D"/>
<path d="M42.4258 41.2525C39.1889 41.2525 36.5697 38.5757 36.5697 35.2676C36.5697 31.9595 39.1889 29.2828 42.4258 29.2828C45.6627 29.2828 48.2819 31.9595 48.2819 35.2676C48.2819 38.5757 45.6627 41.2525 42.4258 41.2525ZM42.4258 30.7979C40.0043 30.7979 38.0523 32.7929 38.0523 35.2676C38.0523 37.7424 40.0043 39.7373 42.4258 39.7373C44.8473 39.7373 46.7994 37.7424 46.7994 35.2676C46.7994 32.7929 44.8473 30.7979 42.4258 30.7979Z" fill="#5D4E6D"/>
<path d="M2.69327 45.0152C3.48477 45.0152 4.12641 44.3595 4.12641 43.5506C4.12641 42.7417 3.48477 42.0859 2.69327 42.0859C1.90177 42.0859 1.26013 42.7417 1.26013 43.5506C1.26013 44.3595 1.90177 45.0152 2.69327 45.0152Z" fill="#5D4E6D"/>
</g>
<defs>
<clipPath id="clip0">
<rect width="51" height="45" fill="white" transform="translate(0 6)"/>
</clipPath>
</defs>
</svg>
